<?xml version="1.0" encoding="UTF-8" standalone="no"?>
<svg width="100px" height="158px" viewBox="0 0 100 158" version="1.1" xmlns="http://www.w3.org/2000/svg" xmlns:xlink="http://www.w3.org/1999/xlink">
    <!-- Generator: Sketch 39.1 (31720) - http://www.bohemiancoding.com/sketch -->
    <title>Shape Copy 6</title>
    <desc>Created with Sketch.</desc>
    <defs></defs>
    <g id="Page-1" stroke="none" stroke-width="1" fill="none" fill-rule="evenodd">
        <path d="M10.8593162,125.153564 C11.7671747,125.607353 12.826343,126.212406 13.8855113,126.666196 C17.5169454,128.178828 21.6023087,128.935144 25.8389818,128.935144 L53.5286666,128.935144 L97.2978542,128.935144 L99.5675005,128.935144 C105.619891,128.935144 110.461803,124.094721 110.461803,118.195457 C110.461803,117.736504 110.461801,114.037665 108.461801,112.749983 C119.00966,112.749983 110.499727,112.749983 115.948705,112.749982 C122.355607,112.749983 126.060264,107.304507 126.060264,102.615348 C126.060264,102.026131 125.804857,97.44052 122.355607,96.1677844 C127.132951,94.8200289 128.935182,90.035731 128.935149,87.0352386 C128.935122,84.6150275 127.572435,77.5833842 119.556474,77.3533465 C121.083986,75.9225833 121.810034,73.9005707 121.810034,71.4551295 C121.810034,65.5558648 116.968122,60.7154426 110.915732,60.7154426 L65.6334469,60.7154426 L64.8768981,60.7154426 L49.8972325,60.7154426 C52.7721179,50.1270189 52.6208081,41.9588064 49.1406838,36.0595417 C46.1144887,30.7653299 41.4238864,29.5552243 40.3647181,29.252698 C39.4568596,28.9501716 36.5819743,28.3451188 33.707089,30.4628035 C30.6808939,32.5804883 29.1677964,36.8158577 29.1677964,43.0176487 C29.1677964,51.3371245 16.3064673,59.6566002 9.19490893,63.1356537 C8.74097967,62.9843905 8.28705041,62.8331273 7.83312116,62.8331273 L-25.9089538,62.8331273 C-27.5733611,62.8331273 -28.9351489,64.1944961 -28.9351489,65.8583912 L-28.9351478,125.909889 C-28.9351478,127.670553 -27.3730674,128.935146 -25.9089529,128.935146 L7.83312221,128.935149 C9.4975295,128.935149 10.8593173,127.57378 10.8593173,125.909885 L10.8593162,125.153564 Z M37.338523,35.6057522 C37.943762,35.1519626 38.8516206,35.3032258 38.8516206,35.3032258 C39.0029303,35.3032258 39.1542401,35.454489 39.3055498,35.454489 C39.3055498,35.454489 42.1804351,36.0595417 44.1474619,39.387332 C46.1144887,42.7151223 47.6275862,49.6732293 43.0882937,62.9843905 C42.7856741,63.8919697 42.9369839,64.9508121 43.5422229,65.707128 C44.1474619,66.463444 45.0553204,66.9172336 45.963179,66.9172336 L65.0282079,66.9172336 L65.7847566,66.9172336 L111.067042,66.9172336 C113.790617,66.9172336 115.908954,69.0349183 115.908954,71.6063927 C115.908954,74.177867 113.790617,76.2955517 111.067042,76.2955517 L108.192156,76.2955517 L70.6266687,76.2955517 L67.7517834,76.2955517 C66.0873761,76.2955517 64.7255884,77.6569205 64.7255884,79.3208156 C64.7255884,80.9847108 66.0873761,82.3460795 67.7517834,82.3460795 L70.6266687,82.3460795 L118.192156,82.3460795 C120.915732,82.3460795 123.034068,84.4637643 123.034068,87.0352386 C123.034068,89.6067129 120.915732,91.7243976 118.192156,91.7243976 L115.317271,91.7243976 L69.1135712,91.7243976 L66.2386859,91.7243976 C64.5742786,91.7243976 63.2124908,93.0857664 63.2124908,94.7496615 C63.2124908,96.4135567 64.5742786,97.7749255 66.2386859,97.7749255 L69.1135712,97.7749255 L115.317271,97.7749255 C118.040847,97.7749255 120.159183,99.8926102 120.159183,102.464085 C120.159183,105.035559 118.040847,107.153244 115.317271,107.153244 L69.7188102,107.153244 L67.7517834,107.153244 L64.8768981,107.153244 C63.2124908,107.153244 61.850703,108.514612 61.850703,110.178507 C61.850703,111.842403 63.2124908,113.203771 64.8768981,113.203771 L97.7517834,113.203771 L99.7188102,113.203771 C102.442386,113.203771 104.560722,115.321456 104.560722,117.89293 C104.560722,120.464405 102.442386,122.582089 99.7188102,122.582089 L97.4491639,122.582089 L53.6799764,122.582089 L25.8389818,122.582089 C22.3588575,122.582089 19.0300429,121.977037 16.1551576,120.766931 C12.5237235,119.254299 11.3132455,117.89293 11.010626,117.287878 L10.8593162,69.1861815 C16.4577771,66.463444 35.3714962,56.4800731 35.3714962,43.1689119 C35.3714962,37.7234369 36.733284,36.0595417 37.338523,35.6057522 Z M-22.8827587,123.161852 L-22.8827587,68.8836551 L4.80692609,68.8836551 L4.80692609,123.161851 L-22.8827587,123.161852 Z" id="Shape-Copy-6" fill="#41424C" transform="translate(50.000000, 78.935149) rotate(-90.000000) translate(-50.000000, -78.935149) "></path>
    </g>
</svg>