<?xml version="1.0" encoding="UTF-8" standalone="no"?>
<svg width="158px" height="100px" viewBox="0 0 158 100" version="1.1" xmlns="http://www.w3.org/2000/svg" xmlns:xlink="http://www.w3.org/1999/xlink">
    <!-- Generator: Sketch 39.1 (31720) - http://www.bohemiancoding.com/sketch -->
    <title>Shape Copy 5</title>
    <desc>Created with Sketch.</desc>
    <defs></defs>
    <g id="Page-1" stroke="none" stroke-width="1" fill="none" fill-rule="evenodd">
        <path d="M39.7944651,96.2184149 C40.7023236,96.6722045 41.7614919,97.2772573 42.8206602,97.7310469 C46.4520942,99.2436788 50.5374576,99.9999948 54.7741307,99.9999948 L82.4638155,99.9999948 L126.233003,99.9999948 L128.502649,99.9999948 C134.555039,99.9999948 139.396952,95.1595726 139.396952,89.260308 C139.396952,88.8013552 139.39695,85.1025162 137.39695,83.8148346 C147.944809,83.8148346 139.434875,83.8148346 144.883854,83.8148329 C151.290756,83.8148346 154.995412,78.3693579 154.995412,73.6801988 C154.995412,73.0909821 154.740005,68.5053711 151.290756,67.2326355 C156.0681,65.8848801 157.870331,61.1005821 157.870298,58.1000897 C157.870271,55.6798786 156.507584,48.6482353 148.491623,48.4181976 C150.019135,46.9874344 150.745183,44.9654218 150.745183,42.5199806 C150.745183,36.620716 145.903271,31.7802937 139.850881,31.7802937 L94.5685958,31.7802937 L93.812047,31.7802937 L78.8323814,31.7802937 C81.7072667,21.19187 81.555957,13.0236575 78.0758327,7.12439287 C75.0496376,1.83018103 70.3590352,0.620075472 69.299867,0.317549081 C68.3920084,0.0150226903 65.5171231,-0.590030091 62.6422378,1.52765464 C59.6160428,3.64533938 58.1029452,7.88070885 58.1029452,14.0824999 C58.1029452,22.4019756 45.2416162,30.7214513 38.1300578,34.2005048 C37.6761285,34.0492416 37.2221993,33.8979785 36.76827,33.8979785 L3.02619506,33.8979785 C1.36178778,33.8979785 0,35.2593472 0,36.9232424 L1.05881419e-06,96.9747406 C1.05881419e-06,98.7354041 1.56208151,99.999997 3.02619601,99.999997 L36.7682711,100 C38.4326784,100 39.7944662,98.6386312 39.7944662,96.9747361 L39.7944651,96.2184149 Z M66.2736719,6.67060329 C66.8789109,6.2168137 67.7867694,6.3680769 67.7867694,6.3680769 C67.9380792,6.3680769 68.0893889,6.51934009 68.2406987,6.51934009 C68.2406987,6.51934009 71.115584,7.12439287 73.0826108,10.4521832 C75.0496376,13.7799735 76.5627351,20.7380805 72.0234425,34.0492416 C71.720823,34.9568208 71.8721328,36.0156632 72.4773718,36.7719792 C73.0826108,37.5282951 73.9904693,37.9820847 74.8983278,37.9820847 L93.9633567,37.9820847 L94.7199055,37.9820847 L140.002191,37.9820847 C142.725766,37.9820847 144.844103,40.0997695 144.844103,42.6712438 C144.844103,45.2427181 142.725766,47.3604028 140.002191,47.3604028 L137.127305,47.3604028 L99.5618176,47.3604028 L96.6869323,47.3604028 C95.022525,47.3604028 93.6607372,48.7217716 93.6607372,50.3856667 C93.6607372,52.0495619 95.022525,53.4109307 96.6869323,53.4109307 L99.5618176,53.4109307 L147.127305,53.4109307 C149.850881,53.4109307 151.969217,55.5286154 151.969217,58.1000897 C151.969217,60.671564 149.850881,62.7892488 147.127305,62.7892488 L144.25242,62.7892488 L98.0487201,62.7892488 L95.1738348,62.7892488 C93.5094275,62.7892488 92.1476397,64.1506175 92.1476397,65.8145127 C92.1476397,67.4784078 93.5094275,68.8397766 95.1738348,68.8397766 L98.0487201,68.8397766 L144.25242,68.8397766 C146.975996,68.8397766 149.094332,70.9574613 149.094332,73.5289356 C149.094332,76.10041 146.975996,78.2180947 144.25242,78.2180947 L98.6539591,78.2180947 L96.6869323,78.2180947 L93.812047,78.2180947 C92.1476397,78.2180947 90.7858519,79.5794634 90.7858519,81.2433586 C90.7858519,82.9072537 92.1476397,84.2686225 93.812047,84.2686225 L126.686932,84.2686225 L128.653959,84.2686225 C131.377535,84.2686225 133.495871,86.3863072 133.495871,88.9577816 C133.495871,91.5292559 131.377535,93.6469406 128.653959,93.6469406 L126.384313,93.6469406 L82.6151253,93.6469406 L54.7741307,93.6469406 C51.2940063,93.6469406 47.9651918,93.0418878 45.0903065,91.8317823 C41.4588724,90.3191503 40.2483944,88.9577816 39.9457748,88.3527288 L39.7944651,40.2510327 C45.392926,37.5282951 64.3066451,27.5449242 64.3066451,14.2337631 C64.3066451,8.78828802 65.6684329,7.12439287 66.2736719,6.67060329 Z M6.05239013,94.2267033 L6.05239013,39.9485063 L33.742075,39.9485063 L33.742075,94.2267018 L6.05239013,94.2267033 Z" id="Shape-Copy-5" fill="#41424C"></path>
    </g>
</svg>