<?xml version="1.0" encoding="UTF-8" standalone="no"?>
<svg width="121px" height="101px" viewBox="0 0 121 101" version="1.1" xmlns="http://www.w3.org/2000/svg" xmlns:xlink="http://www.w3.org/1999/xlink">
    <!-- Generator: Sketch 39.1 (31720) - http://www.bohemiancoding.com/sketch -->
    <title>Shape</title>
    <desc>Created with Sketch.</desc>
    <defs></defs>
    <g id="Page-1" stroke="none" stroke-width="1" fill="none" fill-rule="evenodd">
        <path d="M39.8889095,96.6196665 C40.7967681,97.0734561 41.8559363,97.6785089 42.9151046,98.1322985 C46.5465387,99.6449304 50.631902,100.401246 54.8685751,100.401246 L82.5582599,100.401246 L96.3274475,100.401246 L98.5970938,100.401246 C104.649484,100.401246 109.491396,95.5608242 109.491396,89.6615595 C109.491396,87.695138 108.886157,85.8799796 107.978298,84.2160845 C112.063662,82.7034525 115.089857,78.7706095 115.089857,74.0814504 C115.089857,71.6612393 114.333308,69.3922914 112.97152,67.577133 C115.997715,65.6107115 117.964742,62.2829212 117.964742,58.5013413 C117.964742,56.0811302 117.208193,53.8121822 115.846406,51.9970239 C118.872601,50.0306023 120.839628,46.7028121 120.839628,42.9212322 C120.839628,37.0219675 115.997715,32.1815453 109.945325,32.1815453 L94.6630402,32.1815453 L93.9064914,32.1815453 L78.9268259,32.1815453 C81.8017112,21.5931216 81.6504014,13.4249091 78.1702771,7.52564445 C75.144082,2.23143262 70.4534797,1.02132705 69.3943114,0.718800661 C68.4864529,0.416274271 65.6115676,-0.188778511 62.7366823,1.92890622 C59.7104872,4.04659096 58.1973897,8.28196043 58.1973897,14.4837514 C58.1973897,22.8032272 45.3360607,31.1227029 38.2245023,34.6017564 C37.770573,34.4504932 37.3166437,34.29923 36.8627145,34.29923 L3.12063951,34.29923 C1.45623222,34.29923 0.0944444444,35.6605988 0.0944444444,37.3244939 L0.0944455033,97.3759922 C0.0944455033,99.1366557 1.65652596,100.401249 3.12064046,100.401249 L36.8627155,100.401252 C38.5271228,100.401252 39.8889106,99.0398828 39.8889106,97.3759877 L39.8889095,96.6196665 Z M64.4010896,14.6350146 C64.4010896,9.1895396 65.7628773,7.52564445 66.3681163,7.07185487 C66.9733554,6.61806528 67.8812139,6.76932848 67.8812139,6.76932848 C68.0325236,6.76932848 68.1838334,6.92059167 68.3351431,6.92059167 C68.3351431,6.92059167 71.2100285,7.52564445 73.1770552,10.8534348 C75.144082,14.181225 76.6571796,21.139332 72.117887,34.4504932 C71.8152675,35.3580724 71.9665772,36.4169148 72.5718162,37.1732307 C73.1770552,37.9295467 74.0849138,38.3833363 74.9927723,38.3833363 L94.0578012,38.3833363 L94.81435,38.3833363 L110.096635,38.3833363 C112.820211,38.3833363 114.938547,40.501021 114.938547,43.0724954 C114.938547,45.6439697 112.820211,47.7616544 110.096635,47.7616544 L107.22175,47.7616544 L99.6562621,47.7616544 L96.7813767,47.7616544 C95.1169695,47.7616544 93.7551817,49.1230232 93.7551817,50.7869183 C93.7551817,52.4508135 95.1169695,53.8121822 96.7813767,53.8121822 L99.6562621,53.8121822 L107.22175,53.8121822 C109.945325,53.8121822 112.063662,55.929867 112.063662,58.5013413 C112.063662,61.0728156 109.945325,63.1905003 107.22175,63.1905003 L104.346864,63.1905003 L98.1431645,63.1905003 L95.2682792,63.1905003 C93.6038719,63.1905003 92.2420841,64.5518691 92.2420841,66.2157643 C92.2420841,67.8796594 93.6038719,69.2410282 95.2682792,69.2410282 L98.1431645,69.2410282 L104.346864,69.2410282 C107.07044,69.2410282 109.188777,71.3587129 109.188777,73.9301872 C109.188777,76.5016615 107.07044,78.6193463 104.346864,78.6193463 L98.7484035,78.6193463 L96.7813767,78.6193463 L93.9064914,78.6193463 C92.2420841,78.6193463 90.8802964,79.980715 90.8802964,81.6446102 C90.8802964,83.3085053 92.2420841,84.6698741 93.9064914,84.6698741 L96.7813767,84.6698741 L98.7484035,84.6698741 C101.471979,84.6698741 103.590316,86.7875588 103.590316,89.3590331 C103.590316,91.9305075 101.471979,94.0481922 98.7484035,94.0481922 L96.4787572,94.0481922 L82.7095697,94.0481922 L54.8685751,94.0481922 C51.3884508,94.0481922 48.0596362,93.4431394 45.1847509,92.2330339 C41.5533168,90.7204019 40.3428388,89.3590331 40.0402193,88.7539804 C40.0402193,88.7539804 40.0402193,88.6027172 39.8889095,88.6027172 L39.8889095,40.6522842 C45.4873704,37.9295467 64.4010896,27.9461758 64.4010896,14.6350146 L64.4010896,14.6350146 Z M6.14683457,94.6279549 L6.14683457,40.3497578 L33.8365194,40.3497578 L33.8365194,94.6279534 L6.14683457,94.6279549 Z" id="Shape" fill="#41424C"></path>
    </g>
</svg>